<svg width="1870" height="1356" viewBox="0 0 1870 1356" fill="none" xmlns="http://www.w3.org/2000/svg">
<path opacity="0.0526316" d="M178.028 690.409C203.488 725.297 297.17 801.475 468.219 827.078C682.031 859.082 794.612 785.677 991.804 795.981C1137.35 803.585 1512.54 869.607 1694.51 1004.5" stroke="#FF99FF" stroke-width="3"/>
<path opacity="0.105263" d="M161.88 630.237C181.901 665.132 265.234 743.999 438.402 780.307C654.862 825.692 785.551 763.941 988.743 787.566C1138.71 805.004 1516.73 894.002 1681.02 1034.79" stroke="#FF99FF" stroke-width="3"/>
<path opacity="0.157895" d="M154.065 572.24C168.427 606.759 240.498 687.451 413.888 734.066C630.625 792.335 777.989 742.914 984.956 779.603C1137.71 806.681 1514.41 917.682 1659.22 1062.82" stroke="#FF99FF" stroke-width="3"/>
<path opacity="0.210526" d="M154.492 516.865C163.037 550.631 223.057 632.264 394.768 688.675C609.408 759.189 771.834 722.64 980.307 771.99C1134.18 808.413 1505.43 940.2 1629.17 1088.09" stroke="#FF99FF" stroke-width="3"/>
<path opacity="0.263158" d="M163.024 464.582C165.66 497.223 212.97 578.903 381.122 644.492C591.312 726.478 767.02 703.202 974.716 764.672C1128.01 810.041 1489.75 961.17 1591.06 1110.2" stroke="#FF99FF" stroke-width="3"/>
<path opacity="0.315789" d="M179.397 415.786C176.095 446.946 210.177 527.777 372.927 601.826C576.365 694.387 763.43 684.639 968.072 757.555C1119.11 811.373 1467.37 980.188 1545.15 1128.73" stroke="#FF99FF" stroke-width="3"/>
<path opacity="0.368421" d="M203.284 370.854C194.079 400.191 214.56 479.289 370.126 560.985C564.582 663.107 760.954 666.993 960.302 750.557C1107.43 812.234 1438.4 996.886 1491.8 1143.3" stroke="#FF99FF" stroke-width="3"/>
<path opacity="0.421053" d="M234.295 330.128C219.288 357.321 225.944 433.818 372.62 522.268C555.965 632.83 759.493 650.309 951.361 743.605C1092.97 812.466 1403.02 1010.93 1431.44 1153.62" stroke="#FF99FF" stroke-width="3"/>
<path opacity="0.473684" d="M271.892 293.869C251.248 318.619 244.005 391.677 380.185 485.911C550.41 603.704 758.864 634.583 941.15 736.59C1075.69 811.879 1361.42 1021.98 1364.56 1159.38" stroke="#FF99FF" stroke-width="3"/>
<path opacity="0.526316" d="M315.544 262.333C289.489 284.369 268.428 353.189 392.619 452.174C547.858 575.906 758.954 619.847 929.662 729.447C1055.66 810.34 1313.94 1029.78 1291.77 1160.39" stroke="#FF99FF" stroke-width="3"/>
<path opacity="0.578947" d="M364.615 235.699C333.435 254.781 298.785 318.608 409.628 421.26C548.181 549.576 759.606 606.098 916.865 722.089C1032.93 807.7 1260.94 1034.07 1213.69 1156.45" stroke="#FF99FF" stroke-width="3"/>
<path opacity="0.631579" d="M418.409 214.092C382.445 230.009 334.586 288.143 430.865 393.339C551.214 524.832 760.652 593.315 902.739 714.428C1007.61 803.818 1202.84 1034.65 1131.04 1147.46" stroke="#FF99FF" stroke-width="3"/>
<path opacity="0.684211" d="M476.191 197.588C435.837 210.168 375.294 261.973 455.955 368.558C556.781 501.789 761.937 581.483 887.296 706.389C979.82 798.58 1140.14 1031.33 1044.56 1133.34" stroke="#FF99FF" stroke-width="3"/>
<path opacity="0.736842" d="M537.166 186.212C492.864 195.315 420.3 240.223 484.459 347.031C564.658 480.539 763.284 570.571 870.541 697.903C949.704 791.884 1073.35 1024.01 955.054 1114.1" stroke="#FF99FF" stroke-width="3"/>
<path opacity="0.789474" d="M600.52 179.917C552.756 185.445 468.966 222.964 515.92 328.823C574.612 461.147 764.533 560.53 852.512 688.892C917.448 783.634 1003.07 1012.59 863.346 1089.77" stroke="#FF99FF" stroke-width="3"/>
<path opacity="0.842105" d="M665.401 178.619C614.698 180.51 520.6 210.229 549.834 313.98C586.377 443.669 765.512 551.315 833.25 679.302C883.246 773.766 929.904 997.043 770.286 1060.47" stroke="#FF99FF" stroke-width="3"/>
<path opacity="0.894737" d="M730.952 182.169C677.865 180.402 574.49 201.996 585.685 302.502C599.679 428.136 766.064 542.865 812.819 669.073C847.328 762.225 854.511 977.378 676.746 1026.36" stroke="#FF99FF" stroke-width="3"/>
<path opacity="0.947368" d="M796.299 190.364C741.41 184.959 629.891 198.191 622.924 294.352C614.214 414.553 766.027 535.108 791.287 658.156C809.93 748.974 777.561 953.646 583.597 987.642" stroke="#FF99FF" stroke-width="3"/>
<path d="M860.575 202.953C804.486 193.97 686.044 198.695 660.99 289.456C629.674 402.908 765.251 527.969 768.739 646.507C771.312 733.997 699.745 925.946 491.707 944.584" stroke="#FF99FF" stroke-width="3"/>
</svg>
